<svg xmlns="http://www.w3.org/2000/svg" xmlns:xlink="http://www.w3.org/1999/xlink" width="500" zoomAndPan="magnify" viewBox="0 0 375 374.999991" height="500" preserveAspectRatio="xMidYMid meet" version="1.0"><defs><g/><clipPath id="db967b1bbb"><path d="M 77.859375 208.265625 L 88.019531 208.265625 L 88.019531 218.425781 L 77.859375 218.425781 Z M 77.859375 208.265625 " clip-rule="nonzero"/></clipPath><clipPath id="c174926c13"><path d="M 82.941406 208.265625 C 80.136719 208.265625 77.859375 210.539062 77.859375 213.34375 C 77.859375 216.148438 80.136719 218.425781 82.941406 218.425781 C 85.746094 218.425781 88.019531 216.148438 88.019531 213.34375 C 88.019531 210.539062 85.746094 208.265625 82.941406 208.265625 Z M 82.941406 208.265625 " clip-rule="nonzero"/></clipPath></defs><g fill="#0d2d43" fill-opacity="1"><g transform="translate(66.313366, 207.248187)"><g><path d="M 30.75 0 L 1.34375 0 L 1.34375 -6.265625 L 18.921875 -31.265625 L 2.4375 -31.265625 L 2.4375 -39.5625 L 30.640625 -39.5625 L 30.640625 -32.96875 L 13.375 -8.296875 L 30.75 -8.296875 Z M 30.75 0 "/></g></g></g><g fill="#0d2d43" fill-opacity="1"><g transform="translate(98.656763, 207.248187)"><g><path d="M 8.8125 10.15625 L 3.578125 10.15625 L 3.578125 3.0625 L 7.109375 3.0625 C 7.828125 3.0625 8.488281 2.9375 9.09375 2.6875 C 9.695312 2.445312 10.175781 1.894531 10.53125 1.03125 L 10.78125 0.421875 L 0.359375 -29.390625 L 9.6875 -29.390625 L 15.234375 -8.546875 L 20.015625 -29.390625 L 29.390625 -29.390625 L 18.96875 1.859375 C 18 4.796875 16.769531 6.910156 15.28125 8.203125 C 13.800781 9.503906 11.644531 10.15625 8.8125 10.15625 Z M 8.8125 10.15625 "/></g></g></g><g fill="#0d2d43" fill-opacity="1"><g transform="translate(128.512206, 207.248187)"><g><path d="M 19.078125 -30.015625 C 21.597656 -30.015625 23.816406 -29.363281 25.734375 -28.0625 C 27.660156 -26.769531 29.164062 -24.96875 30.25 -22.65625 C 31.34375 -20.34375 31.890625 -17.679688 31.890625 -14.671875 C 31.890625 -11.703125 31.34375 -9.054688 30.25 -6.734375 C 29.164062 -4.421875 27.660156 -2.613281 25.734375 -1.3125 C 23.816406 -0.0195312 21.597656 0.625 19.078125 0.625 C 17.523438 0.625 16.132812 0.363281 14.90625 -0.15625 C 13.675781 -0.675781 12.5625 -1.675781 11.5625 -3.15625 L 11.5625 10.15625 L 2.84375 10.15625 L 2.84375 -29.390625 L 11.5625 -29.390625 L 11.5625 -26.234375 C 12.5625 -27.722656 13.675781 -28.722656 14.90625 -29.234375 C 16.132812 -29.753906 17.523438 -30.015625 19.078125 -30.015625 Z M 16.640625 -22.609375 C 14.742188 -22.609375 13.195312 -21.878906 12 -20.421875 C 10.8125 -18.972656 10.21875 -17.054688 10.21875 -14.671875 C 10.21875 -12.316406 10.8125 -10.414062 12 -8.96875 C 13.195312 -7.519531 14.742188 -6.796875 16.640625 -6.796875 C 18.578125 -6.796875 20.132812 -7.53125 21.3125 -9 C 22.488281 -10.46875 23.078125 -12.359375 23.078125 -14.671875 C 23.078125 -17.023438 22.488281 -18.9375 21.3125 -20.40625 C 20.132812 -21.875 18.578125 -22.609375 16.640625 -22.609375 Z M 16.640625 -22.609375 "/></g></g></g><g fill="#0d2d43" fill-opacity="1"><g transform="translate(162.151417, 207.248187)"><g><path d="M 11.5625 0 L 2.84375 0 L 2.84375 -39.5625 L 11.5625 -39.5625 L 11.5625 -26.234375 C 12.5625 -27.722656 13.675781 -28.722656 14.90625 -29.234375 C 16.132812 -29.753906 17.523438 -30.015625 19.078125 -30.015625 C 21.015625 -30.015625 22.613281 -29.78125 23.875 -29.3125 C 25.132812 -28.851562 26.132812 -28.234375 26.875 -27.453125 C 27.625 -26.671875 28.1875 -25.832031 28.5625 -24.9375 C 29.15625 -23.65625 29.492188 -22.375 29.578125 -21.09375 C 29.660156 -19.820312 29.703125 -18.269531 29.703125 -16.4375 L 29.703125 0 L 21 0 L 21 -16.53125 C 21 -17.988281 20.898438 -19.140625 20.703125 -19.984375 C 20.515625 -20.828125 20.195312 -21.476562 19.75 -21.9375 C 19.0625 -22.65625 17.988281 -23.015625 16.53125 -23.015625 C 15.632812 -23.015625 14.859375 -22.898438 14.203125 -22.671875 C 13.546875 -22.453125 13.03125 -22.066406 12.65625 -21.515625 C 12.300781 -21.035156 12.03125 -20.40625 11.84375 -19.625 C 11.65625 -18.84375 11.5625 -17.8125 11.5625 -16.53125 Z M 11.5625 0 "/></g></g></g><g fill="#0d2d43" fill-opacity="1"><g transform="translate(194.494814, 207.248187)"><g><path d="M 11.359375 0.625 C 9.585938 0.625 7.976562 0.296875 6.53125 -0.359375 C 5.082031 -1.015625 3.914062 -2 3.03125 -3.3125 C 2.144531 -4.625 1.703125 -6.269531 1.703125 -8.25 C 1.703125 -10.007812 2.046875 -11.457031 2.734375 -12.59375 C 3.429688 -13.738281 4.316406 -14.65625 5.390625 -15.34375 C 6.429688 -16.03125 7.570312 -16.539062 8.8125 -16.875 C 10.0625 -17.207031 11.238281 -17.472656 12.34375 -17.671875 L 19.953125 -19.03125 C 19.847656 -20.507812 19.453125 -21.648438 18.765625 -22.453125 C 18.109375 -23.140625 17.125 -23.484375 15.8125 -23.484375 C 14.8125 -23.484375 13.882812 -23.144531 13.03125 -22.46875 C 12.1875 -21.800781 11.660156 -20.84375 11.453125 -19.59375 L 2.796875 -19.59375 C 3.179688 -22.050781 4.03125 -24.046875 5.34375 -25.578125 C 6.65625 -27.117188 8.242188 -28.242188 10.109375 -28.953125 C 11.972656 -29.660156 13.890625 -30.015625 15.859375 -30.015625 C 17.585938 -30.015625 19.242188 -29.78125 20.828125 -29.3125 C 22.421875 -28.851562 23.804688 -28.117188 24.984375 -27.109375 C 26.191406 -26.078125 27.046875 -24.882812 27.546875 -23.53125 C 28.054688 -22.1875 28.363281 -20.707031 28.46875 -19.09375 C 28.570312 -17.488281 28.625 -15.773438 28.625 -13.953125 L 28.625 0 L 19.90625 0 L 19.90625 -3.578125 C 19.425781 -2.429688 18.734375 -1.550781 17.828125 -0.9375 C 16.960938 -0.34375 15.96875 0.0625 14.84375 0.28125 C 13.726562 0.507812 12.566406 0.625 11.359375 0.625 Z M 13.890625 -5.96875 C 14.929688 -5.96875 15.988281 -6.207031 17.0625 -6.6875 C 18.269531 -7.238281 19.070312 -8.003906 19.46875 -8.984375 C 19.863281 -9.972656 20.078125 -11.265625 20.109375 -12.859375 L 14.78125 -11.828125 C 13.8125 -11.648438 13.066406 -11.457031 12.546875 -11.25 C 12.023438 -11.039062 11.578125 -10.765625 11.203125 -10.421875 C 10.953125 -10.179688 10.757812 -9.910156 10.625 -9.609375 C 10.488281 -9.316406 10.421875 -8.960938 10.421875 -8.546875 C 10.421875 -7.617188 10.765625 -6.957031 11.453125 -6.5625 C 12.148438 -6.164062 12.960938 -5.96875 13.890625 -5.96875 Z M 13.890625 -5.96875 "/></g></g></g><g fill="#0d2d43" fill-opacity="1"><g transform="translate(225.64607, 207.248187)"><g><path d="M 15.296875 0 L 9.4375 0 C 7.289062 0 5.628906 -0.507812 4.453125 -1.53125 C 3.285156 -2.550781 2.703125 -3.992188 2.703125 -5.859375 L 2.703125 -39.5625 L 11.40625 -39.5625 L 11.40625 -8.859375 C 11.40625 -8.066406 11.601562 -7.566406 12 -7.359375 C 12.394531 -7.148438 12.765625 -7.046875 13.109375 -7.046875 L 15.296875 -7.046875 Z M 15.296875 0 "/></g></g></g><g fill="#0d2d43" fill-opacity="1"><g transform="translate(242.128766, 207.248187)"><g><path d="M 17.109375 0.625 C 14.066406 0.625 11.378906 -0.015625 9.046875 -1.296875 C 6.710938 -2.578125 4.894531 -4.382812 3.59375 -6.71875 C 2.300781 -9.050781 1.65625 -11.769531 1.65625 -14.875 C 1.65625 -17.882812 2.300781 -20.519531 3.59375 -22.78125 C 4.894531 -25.050781 6.703125 -26.820312 9.015625 -28.09375 C 11.335938 -29.375 14.035156 -30.015625 17.109375 -30.015625 C 20.179688 -30.015625 22.875 -29.375 25.1875 -28.09375 C 27.507812 -26.820312 29.316406 -25.050781 30.609375 -22.78125 C 31.910156 -20.519531 32.5625 -17.882812 32.5625 -14.875 C 32.5625 -11.769531 31.921875 -9.054688 30.640625 -6.734375 C 29.359375 -4.421875 27.5625 -2.613281 25.25 -1.3125 C 22.9375 -0.0195312 20.222656 0.625 17.109375 0.625 Z M 17.109375 -6.84375 C 19.078125 -6.84375 20.628906 -7.578125 21.765625 -9.046875 C 22.910156 -10.515625 23.484375 -12.457031 23.484375 -14.875 C 23.484375 -17.15625 22.910156 -19.015625 21.765625 -20.453125 C 20.628906 -21.890625 19.078125 -22.609375 17.109375 -22.609375 C 15.171875 -22.609375 13.601562 -21.898438 12.40625 -20.484375 C 11.21875 -19.066406 10.625 -17.195312 10.625 -14.875 C 10.625 -12.425781 11.21875 -10.472656 12.40625 -9.015625 C 13.601562 -7.566406 15.171875 -6.84375 17.109375 -6.84375 Z M 17.109375 -6.84375 "/></g></g></g><g fill="#0d2d43" fill-opacity="1"><g transform="translate(276.338134, 207.248187)"><g><path d="M 11.5625 0 L 2.84375 0 L 2.84375 -29.390625 L 11.5625 -29.390625 L 11.5625 -26.234375 C 12.5625 -27.722656 13.675781 -28.722656 14.90625 -29.234375 C 16.132812 -29.753906 17.523438 -30.015625 19.078125 -30.015625 C 21.015625 -30.015625 22.613281 -29.78125 23.875 -29.3125 C 25.132812 -28.851562 26.132812 -28.234375 26.875 -27.453125 C 27.625 -26.671875 28.1875 -25.832031 28.5625 -24.9375 C 29.15625 -23.65625 29.492188 -22.375 29.578125 -21.09375 C 29.660156 -19.820312 29.703125 -18.269531 29.703125 -16.4375 L 29.703125 0 L 21 0 L 21 -16.53125 C 21 -17.988281 20.898438 -19.140625 20.703125 -19.984375 C 20.515625 -20.828125 20.195312 -21.476562 19.75 -21.9375 C 19.0625 -22.65625 17.988281 -23.015625 16.53125 -23.015625 C 15.632812 -23.015625 14.859375 -22.898438 14.203125 -22.671875 C 13.546875 -22.453125 13.03125 -22.066406 12.65625 -21.515625 C 12.300781 -21.035156 12.03125 -20.40625 11.84375 -19.625 C 11.65625 -18.84375 11.5625 -17.8125 11.5625 -16.53125 Z M 11.5625 0 "/></g></g></g><g clip-path="url(#db967b1bbb)"><g clip-path="url(#c174926c13)"><path fill="#a3cb38" d="M 77.859375 208.265625 L 88.019531 208.265625 L 88.019531 218.425781 L 77.859375 218.425781 Z M 77.859375 208.265625 " fill-opacity="1" fill-rule="nonzero"/></g></g></svg>